# xmcd
#
# Track frame offsets: 
#        150
#        21372
#        36387
#        52025
#        70377
#        89414
#        101011
#        121093
#        137954
#        156469
#        173782
#        189919
#        210938
#        226412
#        242458
#        257410
#        276616
#        291023
#        307471
#        319866
#        343864
#
# Disc length: 4781 seconds
#
# Revision: 0
# Processed by: cddbd v1.5.2PL0 Copyright (c) Steve Scherf et al.
# Submitted via: ExactAudioCopy v0.99pb5
#
DISCID=4312ab15
DTITLE=Elvis Presley  - FTD 71-1 - That's The Way It Is - CD 1  FLAC
DYEAR=1900
DGENRE=
TTITLE0=I Just Can't Help Believin' (Live, 08-11-1970)
TTITLE1=Twenty Days And Twenty Nights
TTITLE2=How The Web Was Woven
TTITLE3=Patch It Up (Live, 08-12-1970)
TTITLE4=Mary In The Morning
TTITLE5=You Don't Have To Say You Love Me
TTITLE6=You've Lost That Lovin' Feelin' (Live, 08-12-1970)
TTITLE7=I've Lost You (Live, 08-11-1970)
TTITLE8=Just Pretend
TTITLE9=Stranger In The Crowd
TTITLE10=The Next Step Is Love
TTITLE11=Bridge Over Troubled Water
TTITLE12=Patch It Up (Studio Master)
TTITLE13=I've Lost You (Studio Master)
TTITLE14=Twenty Days And Twenty Nights (Take 8)
TTITLE15=Bridge Over Troubled Water (Live, 08-11-1970)
TTITLE16=Little Sister-Get Back (Live, 08-12-1970)
TTITLE17=Something (Live, 08-11-1970)
TTITLE18=Patch It Up (Take 1)
TTITLE19=Patch It Up (Takes 2-7)
TTITLE20=Patch It Up (Alternate Master, Take 9)
EXTD=
EXTT0=
EXTT1=
EXTT2=
EXTT3=
EXTT4=
EXTT5=
EXTT6=
EXTT7=
EXTT8=
EXTT9=
EXTT10=
EXTT11=
EXTT12=
EXTT13=
EXTT14=
EXTT15=
EXTT16=
EXTT17=
EXTT18=
EXTT19=
EXTT20=
PLAYORDER=
